<svg xmlns="http://www.w3.org/2000/svg" xmlns:xlink="http://www.w3.org/1999/xlink" preserveAspectRatio="xMidYMid" width="60.531" height="63.625" viewBox="0 0 60.531 63.625">
  <defs>
    <style>
      .cls-1 {
        fill: #ff6f30;
        fill-rule: evenodd;
      }
    </style>
  </defs>
  <path d="M53.005,52.799 C47.734,55.377 42.616,58.210 37.651,61.300 C32.685,64.390 27.726,64.380 22.773,61.270 C17.820,58.159 12.713,55.305 7.452,52.705 C2.191,50.107 -0.280,45.963 0.037,40.275 C0.355,34.587 0.366,28.899 0.071,23.210 C-0.225,17.520 2.263,13.387 7.533,10.810 C12.804,8.232 17.922,5.398 22.888,2.309 C27.853,-0.781 32.812,-0.771 37.765,2.339 C42.718,5.450 47.825,8.304 53.086,10.904 C58.347,13.503 60.819,17.646 60.501,23.334 C60.183,29.022 60.172,34.710 60.468,40.399 C60.763,46.088 58.276,50.222 53.005,52.799 Z" class="cls-1"/>
</svg>
