<svg xmlns="http://www.w3.org/2000/svg" xmlns:xlink="http://www.w3.org/1999/xlink" preserveAspectRatio="xMidYMid" width="60.531" height="63.625" viewBox="0 0 60.531 63.625">
  <defs>
    <style>
      .cls-1 {
        fill: #7ee6d9;
        fill-rule: evenodd;
      }
    </style>
  </defs>
  <path d="M53.007,52.799 C47.737,55.377 42.618,58.210 37.653,61.300 C32.688,64.390 27.729,64.380 22.776,61.270 C17.823,58.159 12.716,55.305 7.455,52.705 C2.194,50.107 -0.278,45.963 0.040,40.275 C0.358,34.587 0.369,28.899 0.073,23.210 C-0.222,17.520 2.265,13.387 7.536,10.810 C12.807,8.232 17.925,5.398 22.890,2.309 C27.856,-0.781 32.815,-0.771 37.768,2.339 C42.721,5.450 47.828,8.304 53.089,10.904 C58.350,13.503 60.821,17.646 60.503,23.334 C60.186,29.022 60.175,34.710 60.470,40.399 C60.766,46.088 58.278,50.222 53.007,52.799 Z" class="cls-1"/>
</svg>
