<svg xmlns="http://www.w3.org/2000/svg" xmlns:xlink="http://www.w3.org/1999/xlink" preserveAspectRatio="xMidYMid" width="60.531" height="63.625" viewBox="0 0 60.531 63.625">
  <defs>
    <style>
      .cls-1 {
        fill: #fdb700;
        fill-rule: evenodd;
      }
    </style>
  </defs>
  <path d="M52.995,52.799 C47.724,55.377 42.606,58.210 37.641,61.300 C32.676,64.390 27.717,64.380 22.763,61.270 C17.810,58.159 12.703,55.305 7.442,52.705 C2.182,50.107 -0.290,45.963 0.028,40.275 C0.346,34.587 0.357,28.899 0.061,23.210 C-0.235,17.520 2.253,13.387 7.524,10.810 C12.795,8.232 17.913,5.398 22.878,2.309 C27.843,-0.781 32.802,-0.771 37.756,2.339 C42.709,5.450 47.816,8.304 53.076,10.904 C58.337,13.503 60.809,17.646 60.491,23.334 C60.173,29.022 60.162,34.710 60.458,40.399 C60.754,46.088 58.266,50.222 52.995,52.799 Z" class="cls-1"/>
</svg>
