<svg xmlns="http://www.w3.org/2000/svg" xmlns:xlink="http://www.w3.org/1999/xlink" preserveAspectRatio="xMidYMid" width="60.5" height="63.625" viewBox="0 0 60.5 63.625">
  <defs>
    <style>
      .cls-1 {
        fill: #c6e586;
        fill-rule: evenodd;
      }
    </style>
  </defs>
  <path d="M52.987,52.799 C47.716,55.377 42.598,58.210 37.633,61.300 C32.668,64.390 27.708,64.380 22.755,61.270 C17.802,58.159 12.695,55.305 7.434,52.705 C2.173,50.107 -0.298,45.963 0.020,40.275 C0.337,34.587 0.348,28.899 0.053,23.210 C-0.243,17.520 2.245,13.387 7.516,10.810 C12.787,8.232 17.905,5.398 22.870,2.309 C27.835,-0.781 32.794,-0.771 37.747,2.339 C42.700,5.450 47.807,8.304 53.068,10.904 C58.329,13.503 60.801,17.646 60.483,23.334 C60.165,29.022 60.154,34.710 60.450,40.399 C60.745,46.088 58.258,50.222 52.987,52.799 Z" class="cls-1"/>
</svg>
