<svg xmlns="http://www.w3.org/2000/svg" xmlns:xlink="http://www.w3.org/1999/xlink" preserveAspectRatio="xMidYMid" width="108.312" height="117.812" viewBox="0 0 108.312 117.812">
  <defs>
    <style>
      .cls-1 {
        fill: #7ee6d9;
        fill-rule: evenodd;
      }
    </style>
  </defs>
  <path d="M95.263,97.393 C86.217,102.622 77.264,108.007 68.403,113.548 C59.543,119.089 50.600,119.227 41.576,113.961 C32.551,108.695 23.439,103.588 14.238,98.639 C5.038,93.691 0.448,85.969 0.469,75.474 C0.490,64.979 0.331,54.486 -0.009,43.997 C-0.350,33.507 4.003,25.648 13.049,20.419 C22.095,15.190 31.048,9.805 39.909,4.264 C48.769,-1.277 57.711,-1.415 66.736,3.851 C75.761,9.117 84.873,14.224 94.074,19.173 C103.274,24.121 107.864,31.843 107.843,42.338 C107.822,52.833 107.981,63.325 108.321,73.815 C108.662,84.305 104.309,92.164 95.263,97.393 Z" class="cls-1"/>
</svg>
