<svg xmlns="http://www.w3.org/2000/svg" xmlns:xlink="http://www.w3.org/1999/xlink" preserveAspectRatio="xMidYMid" width="107.218" height="116.031" viewBox="0 0 107.218 116.031">
  <defs>
    <style>
      .cls-1 {
        fill: #ff7564;
        fill-rule: evenodd;
      }
    </style>
  </defs>
  <path d="M94.300,95.935 C85.348,101.086 76.488,106.390 67.719,111.849 C58.950,117.307 50.100,117.443 41.169,112.255 C32.238,107.068 23.219,102.037 14.114,97.162 C5.009,92.287 0.467,84.681 0.488,74.342 C0.509,64.004 0.351,53.668 0.014,43.335 C-0.322,33.001 3.985,25.259 12.938,20.108 C21.890,14.957 30.750,9.652 39.519,4.194 C48.288,-1.265 57.138,-1.400 66.069,3.787 C75.000,8.975 84.018,14.006 93.124,18.880 C102.229,23.755 106.771,31.362 106.750,41.701 C106.729,52.039 106.887,62.375 107.224,72.708 C107.560,83.041 103.253,90.783 94.300,95.935 Z" class="cls-1"/>
</svg>
