<svg xmlns="http://www.w3.org/2000/svg" xmlns:xlink="http://www.w3.org/1999/xlink" preserveAspectRatio="xMidYMid" width="107.813" height="116.938" viewBox="0 0 107.813 116.938">
  <defs>
    <style>
      .cls-1 {
        fill: #c6e586;
        fill-rule: evenodd;
      }
    </style>
  </defs>
  <path d="M94.828,96.675 C85.826,101.866 76.916,107.212 68.098,112.712 C59.281,118.213 50.381,118.350 41.400,113.122 C32.419,107.894 23.351,102.824 14.194,97.912 C5.038,93.000 0.471,85.334 0.492,74.916 C0.513,64.497 0.354,54.082 0.016,43.669 C-0.323,33.256 4.009,25.454 13.011,20.263 C22.014,15.072 30.923,9.726 39.741,4.226 C48.559,-1.275 57.458,-1.412 66.439,3.816 C75.420,9.044 84.489,14.113 93.645,19.026 C102.801,23.938 107.369,31.604 107.348,42.022 C107.326,52.441 107.485,62.856 107.824,73.269 C108.162,83.682 103.830,91.484 94.828,96.675 Z" class="cls-1"/>
</svg>
